HIERARCHY
ROOT Hips
{
	OFFSET 0.000000 0.000000 0.000000
	CHANNELS 6 Xposition Yposition Zposition Xrotation Yrotation Zrotation
	JOINT LeftUpLeg_virtual
	{
		OFFSET 0.000000 0.000000 0.000000
		CHANNELS 3 Xrotation Yrotation Zrotation
		JOINT LeftUpLeg
		{
			OFFSET 11.394100 -6.187798 -0.413800
			CHANNELS 3 Xrotation Yrotation Zrotation
			JOINT LeftLeg
			{
				OFFSET 0.430247 -32.302673 3.732800
				CHANNELS 3 Xrotation Yrotation Zrotation
				JOINT LeftFoot
				{
					OFFSET -0.430247 -48.264931 -6.423300
					CHANNELS 3 Xrotation Yrotation Zrotation
					JOINT LeftToeBase
					{
						OFFSET 4.230900 -16.068199 23.438400
						CHANNELS 3 Xrotation Yrotation Zrotation
						JOINT LeftToe_End
						{
							OFFSET 4.510700 0.695400 19.974600
							CHANNELS 3 Xrotation Yrotation Zrotation
							End Site
							{
								OFFSET 0 0 0
							}
						}
					}
				}
			}
		}
	}
	JOINT RightUpLeg_virtual
	{
		OFFSET 0.000000 0.000000 0.000000
		CHANNELS 3 Xrotation Yrotation Zrotation
		JOINT RightUpLeg
		{
			OFFSET -11.333700 -6.187798 -0.413800
			CHANNELS 3 Xrotation Yrotation Zrotation
			JOINT RightLeg
			{
				OFFSET -0.430392 -32.302628 3.733000
				CHANNELS 3 Xrotation Yrotation Zrotation
				JOINT RightFoot
				{
					OFFSET 0.430392 -48.264973 -6.423500
					CHANNELS 3 Xrotation Yrotation Zrotation
					JOINT RightToeBase
					{
						OFFSET -4.230900 -16.068199 23.438400
						CHANNELS 3 Xrotation Yrotation Zrotation
						JOINT RightToe_End
						{
							OFFSET -4.510700 0.695400 19.974600
							CHANNELS 3 Xrotation Yrotation Zrotation
							End Site
							{
								OFFSET 0 0 0
							}
						}
					}
				}
			}
		}
	}
	JOINT Spine_virtual
	{
		OFFSET 0.000000 0.000000 0.000000
		CHANNELS 3 Xrotation Yrotation Zrotation
		JOINT Spine
		{
			OFFSET -0.002400 12.777504 0.315300
			CHANNELS 3 Xrotation Yrotation Zrotation
			JOINT Spine1
			{
				OFFSET -0.002067 5.816869 0.032633
				CHANNELS 3 Xrotation Yrotation Zrotation
				JOINT Spine1_split
				{
					OFFSET -0.002067 5.816869 0.032633
					CHANNELS 3 Xrotation Yrotation Zrotation
					JOINT Spine2
					{
						OFFSET -0.002067 5.816869 0.032633
						CHANNELS 3 Xrotation Yrotation Zrotation
						JOINT Neck_virtual
						{
							OFFSET 0.000000 0.000000 0.000000
							CHANNELS 3 Xrotation Yrotation Zrotation
							JOINT Neck
							{
								OFFSET -0.003700 21.199493 -0.826900
								CHANNELS 3 Xrotation Yrotation Zrotation
								JOINT Head
								{
									OFFSET 0.000000 20.442200 4.834800
									CHANNELS 3 Xrotation Yrotation Zrotation
									JOINT HeadTop_End
									{
										OFFSET 0.000000 34.668396 4.968400
										CHANNELS 3 Xrotation Yrotation Zrotation
										End Site
										{
											OFFSET 0 0 0
										}
									}
								}
							}
						}
						JOINT LeftShoulder_virtual
						{
							OFFSET 0.000000 0.000000 0.000000
							CHANNELS 3 Xrotation Yrotation Zrotation
							JOINT LeftShoulder
							{
								OFFSET 3.288150 8.794197 -1.372250
								CHANNELS 3 Xrotation Yrotation Zrotation
								JOINT LeftShoulder_split
								{
									OFFSET 3.288150 8.794197 -1.372250
									CHANNELS 3 Xrotation Yrotation Zrotation
									JOINT LeftArm
									{
										OFFSET 11.953299 -2.279007 -0.146200
										CHANNELS 3 Xrotation Yrotation Zrotation
										JOINT LeftForeArm
										{
											OFFSET 18.448900 0.000000 0.000000
											CHANNELS 3 Xrotation Yrotation Zrotation
											JOINT LeftHand
											{
												OFFSET 29.527798 0.000000 0.000000
												CHANNELS 3 Xrotation Yrotation Zrotation
												End Site
												{
													OFFSET 0 0 0
												}
											}
										}
									}
								}
							}
						}
						JOINT RightShoulder_virtual
						{
							OFFSET 0.000000 0.000000 0.000000
							CHANNELS 3 Xrotation Yrotation Zrotation
							JOINT RightShoulder
							{
								OFFSET -3.249400 8.794197 -1.372250
								CHANNELS 3 Xrotation Yrotation Zrotation
								JOINT RightShoulder_split
								{
									OFFSET -3.249400 8.794197 -1.372250
									CHANNELS 3 Xrotation Yrotation Zrotation
									JOINT RightArm
									{
										OFFSET -11.953299 -2.279007 -0.146200
										CHANNELS 3 Xrotation Yrotation Zrotation
										JOINT RightForeArm
										{
											OFFSET -18.448900 0.000000 0.000000
											CHANNELS 3 Xrotation Yrotation Zrotation
											JOINT RightHand
											{
												OFFSET -29.527802 0.000000 0.000000
												CHANNELS 3 Xrotation Yrotation Zrotation
												End Site
												{
													OFFSET 0 0 0
												}
											}
										}
									}
								}
							}
						}
					}
				}
			}
		}
	}
}
MOTION
Frames: 4
Frame Time: 0.03333333
-1.467932 80.227989 4.203762 0.000000 0.000000 0.000000 15.175306 -50.805764 13.437973 -70.983827 20.966046 44.998912 47.124067 -18.255684 2.796209 5.306260 0.560204 -8.359472 -1.089606 -6.601025 -1.414280 0.000000 0.000000 0.000000 13.379898 -50.657481 13.403241 -35.173838 2.575763 -29.017133 49.231481 8.798265 -9.921981 -26.661628 -4.068326 29.073868 2.980514 6.058282 3.554443 0.000000 0.000000 0.000000 17.460550 -46.631621 14.746600 11.290292 1.515256 -4.069054 3.621600 8.492891 -3.665798 1.184788 -3.642850 1.002985 0.000000 0.000000 0.000000 -2.993829 5.401775 -1.239833 -4.582953 13.756600 4.533692 -4.498406 24.022757 -4.002407 0.000000 0.000000 0.000000 -4.093918 5.574371 -1.787459 0.905114 -11.616042 -0.525036 0.042134 -3.229071 -1.187621 -14.141630 7.477683 -50.137526 -20.736627 -24.504048 -13.631192 0.000000 0.000000 0.000000 -4.229556 4.987927 -1.570041 -2.850633 23.783308 1.199615 3.748727 2.916360 0.909991 9.981265 -33.874289 60.235630 -23.555943 42.610463 19.934170 0.000000 0.000000 0.000000 
-0.621019 80.187416 4.135254 0.000000 0.000000 0.000000 15.254934 -51.082370 13.335559 -70.473789 20.873410 45.002412 48.026137 -18.302171 2.618071 4.553985 0.589813 -8.556274 -1.174238 -6.695109 -1.052902 0.000000 0.000000 0.000000 13.327409 -50.654049 13.340610 -35.748541 3.163999 -29.366750 47.481590 8.855277 -9.461689 -26.193029 -3.789425 28.965142 2.344495 6.221431 3.378394 0.000000 0.000000 0.000000 16.892482 -46.938129 14.243152 11.280399 1.516721 -3.911491 3.540340 8.291561 -3.755959 0.659842 -3.560288 0.867519 0.000000 0.000000 0.000000 -3.259123 5.189972 -1.234863 -4.558473 13.502652 4.225381 -4.170295 24.275285 -4.298011 0.000000 0.000000 0.000000 -4.333554 5.377191 -1.802080 0.819610 -11.369828 -0.273169 1.178361 -2.772244 -1.183571 -13.338475 8.014226 -50.005379 -20.557976 -24.848657 -13.867925 0.000000 0.000000 0.000000 -4.427372 4.789185 -1.568353 -2.961694 23.495151 1.740322 4.058434 2.770779 0.853021 11.037108 -34.442574 61.196576 -23.498856 41.795078 19.753013 0.000000 0.000000 0.000000 
0.763817 80.467499 4.276630 0.000000 0.000000 0.000000 15.215315 -52.225013 13.261477 -69.876865 21.202446 45.468720 49.633243 -17.825339 2.213917 3.144515 0.962504 -8.430909 -1.356101 -6.757116 -0.609391 0.000000 0.000000 0.000000 13.404982 -51.822561 13.445561 -36.951026 3.922564 -30.198189 44.325728 9.021427 -8.732806 -23.330068 -2.974405 29.825459 2.536763 6.304414 3.228422 0.000000 0.000000 0.000000 16.405314 -48.052099 13.878522 11.280475 1.492719 -3.647450 3.642922 7.768566 -3.734397 0.218944 -3.361780 0.950926 0.000000 0.000000 0.000000 -3.314774 4.653930 -1.150036 -3.704567 12.802160 3.942696 -4.485091 23.738814 -4.722052 0.000000 0.000000 0.000000 -4.423536 4.841841 -1.749341 0.679880 -11.088188 0.072955 2.375480 -2.305325 -0.778612 -12.160968 8.751184 -49.961584 -19.811993 -24.919206 -14.256358 0.000000 0.000000 0.000000 -4.456227 4.265197 -1.518380 -3.198045 22.964872 2.301913 3.977389 2.622287 0.545652 11.530141 -34.404704 61.787688 -23.633916 40.546725 19.788364 0.000000 0.000000 0.000000 
2.415253 81.011200 4.558445 0.000000 0.000000 0.000000 15.141754 -54.154944 13.305367 -69.149505 21.924670 46.225136 51.381973 -16.946690 1.635126 1.175621 1.561164 -7.928689 -1.465871 -6.806554 -0.158986 0.000000 0.000000 0.000000 13.459455 -53.783433 13.605083 -38.411642 4.562059 -31.325850 40.739063 9.217146 -7.853579 -18.473918 -1.753075 31.618428 3.095811 6.265228 3.162582 0.000000 0.000000 0.000000 16.125066 -49.833774 13.716921 11.227901 1.454754 -3.283853 3.940979 6.946676 -3.618508 0.039958 -3.241708 1.221220 0.000000 0.000000 0.000000 -3.133350 3.800396 -1.027289 -2.209814 11.735027 3.742711 -5.486939 22.477005 -5.224305 0.000000 0.000000 0.000000 -4.325769 3.973688 -1.663768 0.490815 -10.878289 0.423065 3.486900 -1.800881 -0.063446 -10.949328 9.662996 -49.846406 -18.640783 -24.652579 -14.690769 0.000000 0.000000 0.000000 -4.337227 3.407086 -1.436627 -3.482311 22.251066 2.747781 3.368258 2.261284 0.181318 11.277847 -33.606716 61.908404 -23.972403 39.116046 20.029526 0.000000 0.000000 0.000000 
